<svg id="_x31__x2C_5" enable-background="new 0 0 36 36" height="512" viewBox="0 0 36 36" width="512" xmlns="http://www.w3.org/2000/svg"><path d="m27.623 4.167c-6.917 0-11.667-3.583-15-3.583s-10.333 1.916-10.333 17.249 9.417 17.583 13.083 17.583c17.167.001 24.5-31.249 12.25-31.249z" fill="#efefef"/><g fill="#a4afc1"><path d="m8.533 4.467h2v1h-2z" transform="matrix(.707 -.707 .707 .707 -.72 8.196)"/><path d="m4.467 8.533h2v1h-2z" transform="matrix(.707 -.707 .707 .707 -4.786 6.511)"/><path d="m5.144 3.967h1v2h-1z" transform="matrix(.707 -.707 .707 .707 -1.859 5.444)"/></g><circle cx="18" cy="10" fill="#2fdf84" r="3.25"/><path d="m10.5 19.75c0-2.209 1.791-4 4-4h7c2.209 0 4 1.791 4 4v.5h-15z" fill="#2fdf84"/><path d="m8.75 25.25-2-5.5h22.5l-2 5.5z" fill="#f3f3f1"/><path d="m13.75 29.25-1-6.5h10.5l-1 6.5z" fill="#f3f3f1"/><path d="m16.75 15.75h-2.25c-2.209 0-4 1.791-4 4v.5h2.25v-.5c0-2.209 1.791-4 4-4z" fill="#00b871"/><path d="m17 10c0-1.398.887-2.579 2.125-3.038-.352-.131-.728-.212-1.125-.212-1.795 0-3.25 1.455-3.25 3.25s1.455 3.25 3.25 3.25c.397 0 .773-.082 1.125-.212-1.238-.459-2.125-1.64-2.125-3.038z" fill="#00b871"/><path d="m6.75 19.75 2 5.5h2.25l-2-5.5z" fill="#d5dbe1"/><path d="m12.75 22.75 1 6.5h2.25l-1-6.5z" fill="#d5dbe1"/><path d="m27.25 26h-4.18v-1.5h3.654l1.455-4h-20.359l1.455 4h3.654v1.5h-4.179c-.315 0-.597-.197-.705-.494l-2-5.5c-.083-.23-.05-.486.091-.687.14-.2.369-.319.614-.319h22.5c.245 0 .474.119.614.32.141.2.174.457.091.687l-2 5.5c-.108.296-.39.493-.705.493z"/><path d="m22.991 29.364-1.482-.229.867-5.636h-8.752l.867 5.636-1.482.229-1-6.5c-.033-.216.029-.437.172-.603s.35-.261.569-.261h10.5c.219 0 .427.096.569.262s.205.386.172.603z"/><path d="m29.25 19.5h-1.5c0-1.979-1.058-3.852-2.761-4.889l.781-1.281c2.147 1.308 3.48 3.672 3.48 6.17z"/><circle cx="24.5" cy="13.5" r="1.5"/><path d="m18 14c-2.206 0-4-1.794-4-4s1.794-4 4-4 4 1.794 4 4-1.794 4-4 4zm0-6.5c-1.379 0-2.5 1.122-2.5 2.5s1.121 2.5 2.5 2.5 2.5-1.122 2.5-2.5-1.121-2.5-2.5-2.5z"/><path d="m26.25 19.75h-1.5c0-1.792-1.458-3.25-3.25-3.25h-7c-1.792 0-3.25 1.458-3.25 3.25h-1.5c0-2.619 2.131-4.75 4.75-4.75h7c2.619 0 4.75 2.131 4.75 4.75z"/><path d="m2 28.5h32v1.5h-32z"/></svg>