<svg enable-background="new 0 0 36 36" height="512" viewBox="0 0 36 36" width="512" xmlns="http://www.w3.org/2000/svg"><path d="m34.904 20.355c-3.782-5.791-3.38-11.727-5.203-14.518s-7.256-7.603-20.093.782-9.572 17.5-7.566 20.569c9.388 14.372 39.561 3.423 32.862-6.833z" fill="#efefef"/><path d="m29.06 14.6-1.31 8.38c-.11.73-.74 1.27-1.48 1.27h-13.52c-.92 0-1.62-.82-1.48-1.73l1.26-8.07 6.78 4c.58.34 1.3.37 1.91.06z" fill="#f3f3f1"/><path d="m29.23 13.48-.17 1.11v.01l-7.84 3.91c-.61.31-1.33.28-1.91-.06l-6.78-4 .22-1.43c.11-.73.74-1.27 1.48-1.27h13.52c.92 0 1.62.82 1.48 1.73z" fill="#2fdf84"/><path d="m13.52 22.52 1.07-6.855-2.06-1.215-1.26 8.07c-.14.91.56 1.73 1.48 1.73h2.25c-.92 0-1.62-.82-1.48-1.73z" fill="#d5dbe1"/><path d="m14.854 14.059.146-1.039c.11-.73.74-1.27 1.48-1.27h-2.25c-.74 0-1.37.54-1.48 1.27l-.22 1.43 6.78 4c.58.34 1.3.37 1.91.06l.313-.51z" fill="#00b871"/><g fill="#a4afc1"><path d="m4.812 26.75c-.827 0-1.5-.673-1.5-1.5s.673-1.5 1.5-1.5 1.5.673 1.5 1.5-.672 1.5-1.5 1.5zm0-2c-.275 0-.5.224-.5.5s.225.5.5.5.5-.224.5-.5-.224-.5-.5-.5z"/><path d="m9.147 3.977h1v2h-1z" transform="matrix(.707 -.707 .707 .707 -.694 8.279)"/><path d="m13.212 8.043h1v2h-1z" transform="matrix(.707 -.707 .707 .707 -2.378 12.344)"/><path d="m8.47 8.543h2v1h-2z" transform="matrix(.707 -.707 .707 .707 -3.621 9.345)"/><path d="m12.535 4.477h2v1h-2z" transform="matrix(.707 -.707 .707 .707 .445 11.029)"/></g><path d="m26.27 25h-13.517c-.657 0-1.28-.287-1.708-.786-.429-.5-.616-1.16-.515-1.81l1.479-9.5c.174-1.104 1.108-1.904 2.224-1.904h13.517c.657 0 1.28.287 1.708.786.429.5.616 1.16.515 1.81l-1.479 9.5c-.174 1.104-1.108 1.904-2.224 1.904zm-12.037-12.5c-.372 0-.684.267-.741.635l-1.479 9.5c-.034.22.026.435.171.604.146.169.347.262.569.262h13.517c.372 0 .684-.267.741-.635l1.479-9.5c.034-.22-.026-.435-.171-.604-.146-.169-.347-.262-.569-.262z"/><path d="m20.324 19.476c-.482 0-.964-.128-1.396-.382l-6.783-3.998.762-1.292 6.783 3.998c.367.216.812.23 1.193.041l7.848-3.924.67 1.342-7.848 3.924c-.388.194-.809.291-1.229.291z"/><path d="m6.75 13h3.5v1.5h-3.5z"/><path d="m6.75 17h2.5v1.5h-2.5z"/><path d="m6.75 21h1.5v1.5h-1.5z"/></svg>