<svg id="_x31__x2C_5" enable-background="new 0 0 36 36" height="512" viewBox="0 0 36 36" width="512" xmlns="http://www.w3.org/2000/svg"><path d="m31.833 27.623c0-6.917 3.583-11.667 3.583-15s-1.916-10.333-17.249-10.333-17.584 9.417-17.584 13.083c0 17.167 31.25 24.5 31.25 12.25z" fill="#efefef"/><path d="m10.033 4.467h2v1h-2z" fill="#a4afc1" transform="matrix(.707 -.707 .707 .707 -.281 9.256)"/><path d="m5.967 8.533h2v1h-2z" fill="#a4afc1" transform="matrix(.707 -.707 .707 .707 -4.347 7.572)"/><path d="m6.644 3.967h1v2h-1z" fill="#a4afc1" transform="matrix(.707 -.707 .707 .707 -1.42 6.506)"/><g fill="#f3f3f1"><circle cx="26" cy="20" r="1.25"/><circle cx="10" cy="20" r="1.25"/><circle cx="18" cy="19.5" r="2.25"/><path d="m22.75 29v-2.25c0-1.105-.895-2-2-2h-5.5c-1.105 0-2 .895-2 2v2.25z"/><path d="m29.25 27v-1.25c0-1.105-.895-2-2-2h-2.5c-1.105 0-2 .895-2 2v1.25z"/><path d="m13.25 27v-1.25c0-1.105-.895-2-2-2h-2.5c-1.105 0-2 .895-2 2v1.25z"/></g><path d="m14.533 14.25-.783-4.167 2.293 1.018 1.957-3.351 1.957 3.351 2.293-1.018-.783 4.167z" fill="#2fdf84"/><path d="m27 20c0-.19.049-.365.125-.526-.2-.425-.625-.724-1.125-.724-.69 0-1.25.56-1.25 1.25s.56 1.25 1.25 1.25c.5 0 .925-.299 1.125-.724-.076-.161-.125-.336-.125-.526z" fill="#d5dbe1"/><path d="m11 20c0-.19.049-.365.125-.526-.2-.425-.625-.724-1.125-.724-.69 0-1.25.56-1.25 1.25s.56 1.25 1.25 1.25c.5 0 .925-.299 1.125-.724-.076-.161-.125-.336-.125-.526z" fill="#d5dbe1"/><path d="m18 19.5c0-.831.455-1.548 1.125-1.938-.332-.193-.713-.312-1.125-.312-1.243 0-2.25 1.007-2.25 2.25s1.007 2.25 2.25 2.25c.412 0 .793-.119 1.125-.312-.67-.39-1.125-1.107-1.125-1.938z" fill="#d5dbe1"/><path d="m17.5 24.75h-2.25c-1.105 0-2 .895-2 2v2.25h2.25v-2.25c0-1.105.895-2 2-2z" fill="#d5dbe1"/><path d="m27 23.75h-2.25c-1.105 0-2 .895-2 2v1.25h2.25v-1.25c0-1.105.895-2 2-2z" fill="#d5dbe1"/><path d="m11 23.75h-2.25c-1.105 0-2 .895-2 2v1.25h2.25v-1.25c0-1.105.895-2 2-2z" fill="#d5dbe1"/><path d="m16.044 11.101-2.294-1.018.783 4.167h2.25l-.628-3.34z" fill="#00b871"/><path d="m26 22c-1.103 0-2-.897-2-2s.897-2 2-2 2 .897 2 2-.897 2-2 2zm0-2.5c-.276 0-.5.224-.5.5s.224.5.5.5.5-.224.5-.5-.224-.5-.5-.5z"/><path d="m30 27h-1.5v-1.25c0-.689-.561-1.25-1.25-1.25h-3.25v-1.5h3.25c1.517 0 2.75 1.233 2.75 2.75z"/><path d="m10 22c-1.103 0-2-.897-2-2s.897-2 2-2 2 .897 2 2-.897 2-2 2zm0-2.5c-.276 0-.5.224-.5.5s.224.5.5.5.5-.224.5-.5-.224-.5-.5-.5z"/><path d="m7.5 27h-1.5v-1.25c0-1.517 1.233-2.75 2.75-2.75h3.25v1.5h-3.25c-.689 0-1.25.561-1.25 1.25z"/><path d="m18 22.5c-1.654 0-3-1.346-3-3s1.346-3 3-3 3 1.346 3 3-1.346 3-3 3zm0-4.5c-.827 0-1.5.673-1.5 1.5s.673 1.5 1.5 1.5 1.5-.673 1.5-1.5-.673-1.5-1.5-1.5z"/><path d="m23.5 29h-1.5v-2.25c0-.689-.561-1.25-1.25-1.25h-5.5c-.689 0-1.25.561-1.25 1.25v2.25h-1.5v-2.25c0-1.517 1.233-2.75 2.75-2.75h5.5c1.517 0 2.75 1.233 2.75 2.75z"/><path d="m21.467 15h-6.935c-.361 0-.67-.257-.737-.611l-.783-4.167c-.051-.274.053-.554.272-.727.218-.172.514-.211.77-.097l1.68.746 1.618-2.771c.27-.461 1.026-.461 1.296 0l1.618 2.771 1.68-.746c.254-.114.551-.075.77.097.219.173.323.453.272.727l-.783 4.167c-.067.354-.377.611-.738.611zm-6.312-1.5h5.69l.404-2.152-.989.439c-.351.154-.759.023-.952-.308l-1.308-2.241-1.309 2.242c-.193.331-.603.461-.952.308l-.989-.439z"/><path d="m2 27.5h32v1.5h-32z"/></svg>