<svg id="_x31__x2C_5" enable-background="new 0 0 36 36" height="512" viewBox="0 0 36 36" width="512" xmlns="http://www.w3.org/2000/svg"><g><path d="m8.377 4.167c6.917 0 11.667-3.583 15-3.583s10.333 1.916 10.333 17.249-9.417 17.583-13.083 17.583c-17.167.001-24.5-31.249-12.25-31.249z" fill="#efefef"/></g><g><g><path d="m27.467 2.967h1v2h-1z" fill="#a4afc1" transform="matrix(.707 -.707 .707 .707 5.386 20.938)"/></g><g><path d="m31.533 7.033h1v2h-1z" fill="#a4afc1" transform="matrix(.707 -.707 .707 .707 3.702 25.004)"/></g><g><path d="m30.856 3.467h2v1h-2z" fill="#a4afc1" transform="matrix(.707 -.707 .707 .707 6.525 23.688)"/></g></g><g><path d="m21.25 25.25h-14.5v-3.5c0-1.657 1.343-3 3-3h8.5c1.657 0 3 1.343 3 3z" fill="#f3f3f1"/></g><g><circle cx="14" cy="11.5" fill="#f3f3f1" r="3.75"/></g><g><path d="m17.74 11.3c-1.7.26-2.74-1.55-2.74-1.55-1.76 1.64-3.99 1.6-4.74 1.53.11-1.97 1.74-3.53 3.74-3.53s3.64 1.57 3.74 3.55z" fill="#2fdf84"/></g><g><circle cx="23.5" cy="23.5" fill="#2fdf84" r="5.75"/></g><g><path d="m20 23.5c0-2.79 1.988-5.115 4.625-5.638-.364-.072-.74-.112-1.125-.112-3.176 0-5.75 2.574-5.75 5.75s2.574 5.75 5.75 5.75c.385 0 .761-.039 1.125-.112-2.637-.523-4.625-2.848-4.625-5.638z" fill="#00b871"/></g><g><path d="m12 18.75h-2.25c-1.657 0-3 1.343-3 3v3.5h2.25v-3.5c0-1.657 1.343-3 3-3z" fill="#d5dbe1"/></g><g><path d="m12.5 11.5c0-1.676 1.107-3.079 2.625-3.559-.357-.113-.73-.191-1.125-.191-2.071 0-3.75 1.679-3.75 3.75s1.679 3.75 3.75 3.75c.395 0 .768-.078 1.125-.191-1.518-.48-2.625-1.883-2.625-3.559z" fill="#d5dbe1"/></g><g><path d="m15.123 7.939c-.356-.113-.729-.189-1.123-.189-2 0-3.63 1.56-3.74 3.53.415.039 1.289.057 2.281-.203.166-1.488 1.195-2.699 2.582-3.138z" fill="#00b871"/></g><g><path d="m17.398 12.076c-1.161 0-2.021-.694-2.527-1.255-1.887 1.338-4.022 1.267-4.681 1.206l.14-1.493c.581.055 2.602.12 4.159-1.332.167-.156.395-.227.623-.193.226.034.424.169.539.368.006.01.812 1.351 1.977 1.182l.227 1.482c-.158.024-.31.035-.457.035z"/></g><g><path d="m14 16c-2.481 0-4.5-2.019-4.5-4.5s2.019-4.5 4.5-4.5 4.5 2.019 4.5 4.5-2.019 4.5-4.5 4.5zm0-7.5c-1.654 0-3 1.346-3 3s1.346 3 3 3 3-1.346 3-3-1.346-3-3-3z"/></g><g><path d="m23.5 30c-3.584 0-6.5-2.916-6.5-6.5s2.916-6.5 6.5-6.5 6.5 2.916 6.5 6.5-2.916 6.5-6.5 6.5zm0-11.5c-2.757 0-5 2.243-5 5s2.243 5 5 5 5-2.243 5-5-2.243-5-5-5z"/></g><g><path d="m22.5 26c-.199 0-.39-.079-.53-.22l-2-2 1.061-1.061 1.433 1.433 2.972-3.396 1.129.987-3.5 4c-.137.156-.332.249-.54.256-.008.001-.017.001-.025.001z"/></g><g><path d="m15 26h-8.25c-.414 0-.75-.336-.75-.75v-3.5c0-2.068 1.682-3.75 3.75-3.75h6.27v1.5h-6.27c-1.241 0-2.25 1.009-2.25 2.25v2.75h7.5z"/></g></svg>