<svg enable-background="new 0 0 36 36" height="512" viewBox="0 0 36 36" width="512" xmlns="http://www.w3.org/2000/svg"><g id="BG"><g><path d="m8.114 5.564c-1.805 6.677-6.504 10.327-7.374 13.545s-.847 10.475 13.955 14.477 19.432-4.501 20.388-8.041c4.481-16.572-23.772-31.807-26.969-19.981z" fill="#efefef"/></g></g><g id="Effect"><g><path d="m31.5 6.779c-.827 0-1.5-.673-1.5-1.5s.673-1.5 1.5-1.5 1.5.673 1.5 1.5-.673 1.5-1.5 1.5zm0-2c-.276 0-.5.224-.5.5s.224.5.5.5.5-.224.5-.5-.224-.5-.5-.5z" fill="#a4afc1"/></g><g><g><path d="m7.033 3.662h2v1h-2z" fill="#a4afc1" transform="matrix(.707 -.707 .707 .707 -.59 6.899)"/></g><g><path d="m2.968 7.729h2v1h-2z" fill="#a4afc1" transform="matrix(.707 -.707 .707 .707 -4.657 5.216)"/></g><g><path d="m3.467 2.986h1v2h-1z" fill="#a4afc1" transform="matrix(.707 -.707 .707 .707 -1.657 3.973)"/></g></g></g><g id="color_1_"><g><path d="m27 7h-18c-1.654 0-3 1.346-3 3v16c0 1.654 1.346 3 3 3h18c1.654 0 3-1.346 3-3v-16c0-1.654-1.346-3-3-3z" fill="#f3f3f1"/></g><g><path d="m8.75 26v-16c0-1.654 1.346-3 3-3h-2.5c-1.654 0-3 1.346-3 3v16c0 1.654 1.346 3 3 3h2.5c-1.654 0-3-1.346-3-3z" fill="#d5dbe1"/></g><g><path d="m22.25 16.75h-.75c-.078 0-.153-.037-.239-.148l-.902-1.015c-.333-.373-.809-.587-1.308-.587h-2.102c-.499 0-.976.214-1.308.587l-.941 1.063c-.047.062-.122.1-.2.1h-.75c-.965 0-1.75.785-1.75 1.75v4.75c0 .965.785 1.75 1.75 1.75h8.5c.965 0 1.75-.785 1.75-1.75v-4.75c0-.965-.785-1.75-1.75-1.75z" fill="#2fdf84"/></g><g><path d="m14.733 23.25v-4.75c0-.965.785-1.75 1.75-1.75h.75c.078 0 .153-.037.2-.1l.941-1.063c.288-.323.685-.517 1.109-.566-.067-.007-.132-.021-.2-.021h-2.102c-.499 0-.976.214-1.308.587l-.941 1.063c-.047.062-.122.1-.2.1h-.75c-.965 0-1.75.785-1.75 1.75v4.75c0 .965.785 1.75 1.75 1.75h2.5c-.964 0-1.749-.785-1.749-1.75z" fill="#00b871"/></g><g><circle cx="18" cy="20" fill="#2fdf84" r="2.5"/></g></g><g id="regular_1.5"><g><path d="m18 22.5c-1.378 0-2.5-1.121-2.5-2.5 0-1.378 1.122-2.5 2.5-2.5s2.5 1.122 2.5 2.5c0 1.379-1.122 2.5-2.5 2.5zm0-3.5c-.551 0-1 .448-1 1s.449 1 1 1 1-.448 1-1-.449-1-1-1z"/></g><g><path d="m22.25 25h-8.5c-.965 0-1.75-.785-1.75-1.75v-4.75c0-.965.785-1.75 1.75-1.75h.75c.078 0 .153-.037.199-.099l.942-1.063c.333-.374.809-.588 1.308-.588h2.102c.499 0 .976.214 1.308.587l.902 1.015c.086.111.161.148.239.148h.75c.965 0 1.75.785 1.75 1.75v4.75c0 .965-.785 1.75-1.75 1.75zm-8.5-6.75c-.138 0-.25.112-.25.25v4.75c0 .138.112.25.25.25h8.5c.138 0 .25-.112.25-.25v-4.75c0-.138-.112-.25-.25-.25h-.75c-.549 0-1.072-.262-1.4-.701l-.862-.966c-.047-.053-.116-.083-.187-.083h-2.102c-.071 0-.14.031-.188.084l-.901 1.014c-.288.39-.812.652-1.36.652z"/></g><g><path d="m27.25 29h-18.5c-1.517 0-2.75-1.233-2.75-2.75v-16.5c0-1.517 1.233-2.75 2.75-2.75h18.5c1.517 0 2.75 1.233 2.75 2.75v16.5c0 1.517-1.233 2.75-2.75 2.75zm-18.5-20.5c-.689 0-1.25.561-1.25 1.25v16.5c0 .689.561 1.25 1.25 1.25h18.5c.689 0 1.25-.561 1.25-1.25v-16.5c0-.689-.561-1.25-1.25-1.25z"/></g><g><path d="m6.75 11h20.25v1.5h-20.25z"/></g></g></svg>