<?xml version="1.0" standalone="no"?>
<!DOCTYPE svg PUBLIC "-//W3C//DTD SVG 20010904//EN"
 "http://www.w3.org/TR/2001/REC-SVG-20010904/DTD/svg10.dtd">
<svg version="1.0" xmlns="http://www.w3.org/2000/svg"
 width="500.000000pt" height="500.000000pt" viewBox="0 0 500.000000 500.000000"
 preserveAspectRatio="xMidYMid meet">
<metadata>
Created by potrace 1.11, written by Peter Selinger 2001-2013
</metadata>
<g transform="translate(0.000000,500.000000) scale(0.100000,-0.100000)"
fill="#000000" stroke="none">
<path d="M2260 4884 c-302 -33 -521 -85 -723 -173 -26 -11 -51 -21 -55 -23 -4
-1 -49 -26 -101 -55 -439 -248 -711 -640 -827 -1185 -8 -40 -17 -92 -20 -114
-3 -23 -7 -53 -10 -65 -14 -74 -19 -252 -19 -759 0 -510 4 -661 20 -770 40
-267 96 -461 191 -655 211 -435 556 -724 1036 -869 131 -39 126 -38 291 -66
147 -24 272 -34 447 -34 130 0 318 10 370 19 14 2 47 7 74 10 107 12 345 70
411 99 17 8 41 17 55 21 80 23 326 158 410 224 24 20 53 43 64 51 97 73 232
227 322 366 104 161 208 414 249 604 8 41 17 82 19 91 3 9 7 40 11 69 4 29 8
62 11 73 20 104 29 1301 11 1432 -5 33 -10 74 -12 90 -14 133 -59 327 -107
463 -220 627 -722 1023 -1433 1131 -38 6 -88 13 -110 16 -46 7 -522 14 -575 9z"/>
</g>
</svg>
