<?xml version="1.0" encoding="utf-8"?>
<!-- Generator: Adobe Illustrator 23.0.1, SVG Export Plug-In . SVG Version: 6.00 Build 0)  -->
<!DOCTYPE svg PUBLIC "-//W3C//DTD SVG 1.1//EN" "http://www.w3.org/Graphics/SVG/1.1/DTD/svg11.dtd" [
	<!ENTITY ns_extend "http://ns.adobe.com/Extensibility/1.0/">
	<!ENTITY ns_ai "http://ns.adobe.com/AdobeIllustrator/10.0/">
	<!ENTITY ns_graphs "http://ns.adobe.com/Graphs/1.0/">
	<!ENTITY ns_vars "http://ns.adobe.com/Variables/1.0/">
	<!ENTITY ns_imrep "http://ns.adobe.com/ImageReplacement/1.0/">
	<!ENTITY ns_sfw "http://ns.adobe.com/SaveForWeb/1.0/">
	<!ENTITY ns_custom "http://ns.adobe.com/GenericCustomNamespace/1.0/">
	<!ENTITY ns_adobe_xpath "http://ns.adobe.com/XPath/1.0/">
]>
<svg version="1.1" id="Layer_1" xmlns:x="&ns_extend;" xmlns:i="&ns_ai;" xmlns:graph="&ns_graphs;"
	 xmlns="http://www.w3.org/2000/svg" xmlns:xlink="http://www.w3.org/1999/xlink" x="0px" y="0px" viewBox="0 0 1178.3 389.2"
	 style="enable-background:new 0 0 1178.3 389.2;" xml:space="preserve">
<style type="text/css">
	.st0{fill:#1EE0AC;}
	.st1{fill:#FFFFFF;}
</style>
<metadata>
	<sfw  xmlns="&ns_sfw;">
		<slices></slices>
		<sliceSourceBounds  bottomLeftOrigin="true" height="375.7" width="1059.2" x="149.5" y="-834.2"></sliceSourceBounds>
	</sfw>
</metadata>
<g>
	<g>
		<path class="st0" d="M118,301.6c-10.9-5.8-19.2-14.2-24.9-25.2c-5.7-11-8.6-24.3-8.6-39.9V209c0-15.3,2.9-28.4,8.6-39.4
			c5.7-10.9,14-19.2,24.9-24.9s24.1-8.6,39.5-8.6c15.4,0,28.6,2.9,39.5,8.6c10.9,5.7,19.2,14,24.9,24.9c5.7,10.9,8.6,24,8.6,39.4v28
			c0,15.4-2.9,28.6-8.6,39.5s-14,19.3-24.9,25c-10.9,5.8-24.1,8.6-39.5,8.6C142.1,310.2,128.9,307.3,118,301.6z M178.4,259.3
			c5-5.3,7.5-12.7,7.5-22.2v-28c0-9.5-2.5-16.8-7.5-22c-5-5.2-12-7.8-21-7.8c-8.9,0-15.8,2.6-20.8,7.8c-4.9,5.2-7.4,12.6-7.4,22v28
			c0,9.6,2.4,17,7.3,22.2c4.9,5.3,11.8,7.9,20.9,7.9C166.3,267.2,173.4,264.6,178.4,259.3z"/>
		<path class="st0" d="M274.5,70.8h44.7v237h-44.7V70.8z M294.1,264.7h75.6c10.2,0,18.1-2.5,23.7-7.4c5.6-4.9,8.4-11.9,8.4-20.8
			v-0.5c0-6-1.3-11.1-3.7-15.3c-2.5-4.2-6.2-7.5-11-9.7c-4.8-2.2-10.6-3.3-17.4-3.3h-75.6v-43h75.6c9.2,0,16.4-2.3,21.4-7
			c5.1-4.7,7.6-11.2,7.6-19.7c0-7.6-2.5-13.5-7.6-17.8c-5.1-4.2-12.2-6.4-21.4-6.4h-75.6v-43h77.1c15.3,0,28.4,2.5,39.3,7.6
			c10.9,5.1,19.1,12.4,24.8,22c5.6,9.6,8.5,21.2,8.5,34.6c0,9.2-1.8,17.4-5.5,24.5c-3.6,7.1-8.9,13-15.9,17.5
			c-7,4.6-15.3,7.7-25.1,9.3c10.4,1.4,19.4,4.6,26.8,9.5c7.4,4.9,13.1,11.4,17,19.3c3.9,7.9,5.8,17.1,5.8,27.5v0.5
			c0,13.6-2.9,25.2-8.6,34.9c-5.7,9.7-14,17-24.9,22.1s-24,7.6-39.4,7.6h-79.9V264.7z"/>
		<path class="st0" d="M492.1,297.3c-9-8.6-13.4-21.8-13.4-39.4c0-16.7,5-29.3,15.1-37.7c10.1-8.4,25.1-12.6,45.2-12.6h42.4
			l2.3,34.1h-44.5c-6.7,0-11.8,1.3-15.2,4c-3.4,2.7-5.1,6.7-5.1,12.1c0,5.5,2.1,9.6,6.4,12.3c4.2,2.7,10.6,4,19.2,4
			c12,0,20.8-1.4,26.7-4.1c5.8-2.7,8.7-7,8.7-12.7l3.4,24.6c-0.7,6.1-3.5,11.2-8.4,15.5c-4.9,4.2-11.1,7.4-18.6,9.5
			c-7.4,2.1-15.3,3.2-23.6,3.2C514.6,310.2,501,305.9,492.1,297.3z M579.8,200.5c0-7.8-2.6-13.9-7.8-18.1
			c-5.2-4.2-12.6-6.4-22.2-6.4c-6.3,0-12.6,1-18.7,3.1c-6.2,2.1-11.7,4.9-16.5,8.6l-27.7-27.2c6.7-7.7,15.6-13.7,26.7-18
			c11.1-4.3,23.4-6.4,36.8-6.4c14.8,0,27.4,2.5,37.8,7.4c10.4,4.9,18.4,12.1,23.9,21.5c5.5,9.4,8.2,20.7,8.2,34v108.7h-40.6V200.5z"
			/>
		<path class="st0" d="M709.1,251.9c0,4.1,1.2,7.3,3.5,9.5c2.3,2.2,5.7,3.3,10,3.3h7.5v43h-22.8c-13.6,0-24.1-3.9-31.6-11.7
			c-7.5-7.8-11.2-18.9-11.2-33.1V70.8h44.7V251.9z"/>
		<path class="st0" d="M805.8,251.9c0,4.1,1.2,7.3,3.5,9.5c2.3,2.2,5.7,3.3,10,3.3h7.5v43H804c-13.6,0-24.1-3.9-31.6-11.7
			c-7.5-7.8-11.2-18.9-11.2-33.1V70.8h44.7V251.9z"/>
		<path class="st0" d="M886.4,301.6c-10.9-5.8-19.2-14.2-24.9-25.2c-5.7-11-8.6-24.3-8.6-39.9V209c0-15.3,2.9-28.4,8.6-39.4
			c5.7-10.9,14-19.2,24.9-24.9s24.1-8.6,39.5-8.6c15.4,0,28.6,2.9,39.5,8.6c10.9,5.7,19.2,14,24.9,24.9c5.7,10.9,8.6,24,8.6,39.4v28
			c0,15.4-2.9,28.6-8.6,39.5s-14,19.3-24.9,25c-10.9,5.8-24.1,8.6-39.5,8.6C910.5,310.2,897.3,307.3,886.4,301.6z M946.8,259.3
			c5-5.3,7.5-12.7,7.5-22.2v-28c0-9.5-2.5-16.8-7.5-22c-5-5.2-12-7.8-21-7.8c-8.9,0-15.8,2.6-20.8,7.8c-4.9,5.2-7.4,12.6-7.4,22v28
			c0,9.6,2.4,17,7.3,22.2c4.9,5.3,11.8,7.9,20.9,7.9C934.7,267.2,941.8,264.6,946.8,259.3z"/>
		<path class="st0" d="M1026.6,138.6h82.8v38.1h-82.8V138.6z M1054.4,297.3c-6.9-7.6-10.4-18.7-10.4-33.5V89.4h44.7v163.3
			c0,4.1,0.8,7.3,2.4,9.5c1.6,2.2,4,3.3,7.2,3.3h11.1v43h-22.5C1072.2,308.6,1061.3,304.8,1054.4,297.3z"/>
	</g>
</g>
<ellipse class="st0" cx="159.1" cy="226.8" rx="56.6" ry="64.9"/>
<g>
	<path class="st1" d="M157.7,195c-10.4,0-18.8,8.4-18.8,18.8v60.1c0,2.1,1.7,3.8,3.8,3.8s3.8-1.7,3.8-3.8v-60.1
		c0-6.2,5.1-11.3,11.3-11.3s11.3,5.1,11.3,11.3c0,2.1,1.7,3.8,3.8,3.8c2.1,0,3.8-1.7,3.8-3.8C176.5,203.4,168.1,195,157.7,195z"/>
	<path class="st1" d="M157.7,210c-2.1,0-3.8,1.7-3.8,3.8v33.8c0,2.1,1.7,3.8,3.8,3.8c2.1,0,3.8-1.7,3.8-3.8v-33.8
		C161.5,211.7,159.8,210,157.7,210z"/>
	<path class="st1" d="M157.7,258.8c-2.1,0-3.8,1.7-3.8,3.8v18.8c0,2.1,1.7,3.8,3.8,3.8c2.1,0,3.8-1.7,3.8-3.8v-18.8
		C161.5,260.5,159.8,258.8,157.7,258.8z"/>
	<path class="st1" d="M172.7,225c-2.1,0-3.8,1.7-3.8,3.8v45.1c0,2.1,1.7,3.8,3.8,3.8c2.1,0,3.8-1.7,3.8-3.8v-45.1
		C176.5,226.7,174.8,225,172.7,225z"/>
	<path class="st1" d="M127.7,232.5c-2.1,0-3.8,1.7-3.8,3.8v26.3c0,2.1,1.7,3.8,3.8,3.8c2.1,0,3.8-1.7,3.8-3.8v-26.3
		C131.4,234.2,129.7,232.5,127.7,232.5z"/>
	<path class="st1" d="M202.8,225c-2.1,0-3.8,1.7-3.8,3.8v18.8c0,2.1,1.7,3.8,3.8,3.8c2.1,0,3.8-1.7,3.8-3.8v-18.8
		C206.5,226.7,204.8,225,202.8,225z"/>
	<path class="st1" d="M184.2,199c-1.9,0.8-2.9,3-2.1,4.9c1.3,3.1,1.9,6.4,1.9,9.8v48.8c0,2.1,1.7,3.8,3.8,3.8s3.8-1.7,3.8-3.8v-48.8
		c0-4.4-0.8-8.6-2.5-12.7C188.3,199.1,186.1,198.2,184.2,199z"/>
	<path class="st1" d="M157.7,179.9c-18.6,0-33.8,15.2-33.8,33.8v7.5c0,2.1,1.7,3.8,3.8,3.8c2.1,0,3.8-1.7,3.8-3.8v-7.5
		c0-14.5,11.8-26.3,26.3-26.3c6.1,0,11.7,2,16.4,5.8c1.6,1.3,4,1,5.3-0.6c1.3-1.6,1-4-0.6-5.3C172.9,182.6,165.4,179.9,157.7,179.9z
		"/>
	<path class="st1" d="M141.2,175.9c5.2-2.3,10.8-3.4,16.5-3.4c22.8,0,41.3,18.5,41.3,41.3c0,2.1,1.7,3.8,3.8,3.8
		c2.1,0,3.8-1.7,3.8-3.8c0-26.9-21.9-48.8-48.8-48.8c-6.8,0-13.4,1.4-19.5,4.1c-1.9,0.8-2.8,3-1.9,4.9
		C137.1,175.8,139.3,176.7,141.2,175.9L141.2,175.9z"/>
	<path class="st1" d="M126.6,180.9c-1.5-1.4-3.9-1.3-5.3,0.3c-8,9-12.4,20.5-12.4,32.5v33.8c0,2.1,1.7,3.8,3.8,3.8
		c2.1,0,3.8-1.7,3.8-3.8v-33.8c0-10.2,3.7-20,10.5-27.5C128.3,184.7,128.2,182.3,126.6,180.9z"/>
</g>
</svg>
