<svg id="line" enable-background="new 0 0 36 36" height="512" viewBox="0 0 36 36" width="512" xmlns="http://www.w3.org/2000/svg"><g><path d="m31.833 27.623c0-6.917 3.583-11.667 3.583-15s-1.916-10.333-17.249-10.333-17.584 9.417-17.584 13.083c0 17.167 31.25 24.5 31.25 12.25z" fill="#efefef"/></g><g><path d="m31 13.5c-.827 0-1.5-.673-1.5-1.5s.673-1.5 1.5-1.5 1.5.673 1.5 1.5-.673 1.5-1.5 1.5zm0-2c-.275 0-.5.225-.5.5s.225.5.5.5.5-.225.5-.5-.225-.5-.5-.5z" fill="#a4afc1"/></g><g><path d="m7.5 10h1v2h-1z" fill="#a4afc1"/></g><g><path d="m4 7.5h2v1h-2z" fill="#a4afc1"/></g><g><path d="m7.5 4h1v2h-1z" fill="#a4afc1"/></g><g><path d="m10 7.5h2v1h-2z" fill="#a4afc1"/></g><g><circle cx="11.5" cy="20.5" fill="#f3f3f1" r="2.25"/></g><g><path d="m16.25 30v-2.25c0-1.105-.895-2-2-2h-5.5c-1.105 0-2 .895-2 2v2.25z" fill="#f3f3f1"/></g><g><circle cx="24.5" cy="20.5" fill="#f3f3f1" r="2.25"/></g><g><path d="m29.25 30v-2.25c0-1.105-.895-2-2-2h-5.5c-1.105 0-2 .895-2 2v2.25z" fill="#f3f3f1"/></g><g><path d="m19.25 6.75-4.5 6.5h3l-1 6 4.5-7.5h-3z" fill="#2fdf84"/></g><g><path d="m11.5 20.5c0-.831.455-1.548 1.125-1.938-.332-.193-.713-.312-1.125-.312-1.243 0-2.25 1.007-2.25 2.25s1.007 2.25 2.25 2.25c.412 0 .793-.119 1.125-.312-.67-.39-1.125-1.107-1.125-1.938z" fill="#d5dbe1"/></g><g><path d="m11 25.75h-2.25c-1.105 0-2 .895-2 2v2.25h2.25v-2.25c0-1.105.895-2 2-2z" fill="#d5dbe1"/></g><g><path d="m24.5 20.5c0-.831.455-1.548 1.125-1.938-.332-.193-.713-.312-1.125-.312-1.243 0-2.25 1.007-2.25 2.25s1.007 2.25 2.25 2.25c.412 0 .793-.119 1.125-.312-.67-.39-1.125-1.107-1.125-1.938z" fill="#d5dbe1"/></g><g><path d="m24 25.75h-2.25c-1.105 0-2 .895-2 2v2.25h2.25v-2.25c0-1.105.895-2 2-2z" fill="#d5dbe1"/></g><g><path d="m20 13.25h-2.25l-1 6 3.115-5.192z" fill="#00b871"/></g><g><path d="m18.336 11.32.914-4.57-4.5 6.5h2.25z" fill="#00b871"/></g><g><path d="m11.5 23.5c-1.654 0-3-1.346-3-3s1.346-3 3-3 3 1.346 3 3-1.346 3-3 3zm0-4.5c-.827 0-1.5.673-1.5 1.5s.673 1.5 1.5 1.5 1.5-.673 1.5-1.5-.673-1.5-1.5-1.5z"/></g><g><path d="m17 30h-1.5v-2.25c0-.689-.561-1.25-1.25-1.25h-5.5c-.689 0-1.25.561-1.25 1.25v2.25h-1.5v-2.25c0-1.517 1.233-2.75 2.75-2.75h5.5c1.517 0 2.75 1.233 2.75 2.75z"/></g><g><path d="m24.5 23.5c-1.654 0-3-1.346-3-3s1.346-3 3-3 3 1.346 3 3-1.346 3-3 3zm0-4.5c-.827 0-1.5.673-1.5 1.5s.673 1.5 1.5 1.5 1.5-.673 1.5-1.5-.673-1.5-1.5-1.5z"/></g><g><path d="m30 30h-1.5v-2.25c0-.689-.561-1.25-1.25-1.25h-5.5c-.689 0-1.25.561-1.25 1.25v2.25h-1.5v-2.25c0-1.517 1.233-2.75 2.75-2.75h5.5c1.517 0 2.75 1.233 2.75 2.75z"/></g><g><path d="m16.75 20c-.087 0-.174-.015-.259-.046-.339-.125-.54-.472-.481-.827l.854-5.127h-2.114c-.279 0-.535-.155-.664-.402-.13-.247-.111-.545.048-.774l4.5-6.5c.202-.293.584-.402.909-.264.327.139.513.489.442.838l-.82 4.102h2.085c.271 0 .52.146.652.381.134.234.13.523-.009.755l-4.5 7.5c-.139.231-.386.364-.643.364zm-.568-7.5h1.568c.221 0 .43.097.572.266.143.168.204.391.168.607l-.351 2.104 1.786-2.977h-1.675c-.225 0-.438-.101-.58-.274s-.199-.402-.155-.623l.289-1.446z"/></g><g><path d="m2 28.5h32v1.5h-32z"/></g></svg>